<svg width="211" height="60" viewBox="0 0 211 60" fill="none" xmlns="http://www.w3.org/2000/svg">
<path d="M31.1 28.12L24.2 31.48L31.1 34.88V36.96L21.64 32.08V30.9L31.1 26V28.12Z" fill="black"/>
<path d="M33.74 40.22C34.2733 40.0467 34.7667 39.74 35.22 39.3C35.6867 38.86 36.0267 38.3067 36.24 37.64C36.3867 37.1867 36.4933 36.6467 36.56 36.02C36.6267 35.38 36.66 34.4867 36.66 33.34V24.16L34.86 23.88V22.64H41.26V23.88L39.58 24.14V32C39.58 33.4267 39.56 34.5333 39.52 35.32C39.4933 36.0933 39.4267 36.7133 39.32 37.18C39.04 38.26 38.4667 39.1533 37.6 39.86C36.7333 40.58 35.6667 41.0467 34.4 41.26L33.74 40.22Z" fill="black"/>
<path d="M42.68 34.38C42.68 33.1667 43.2867 32.2533 44.5 31.64C45.7267 31.0267 47.3067 30.7133 49.24 30.7V30.24C49.24 29.6933 49.18 29.2667 49.06 28.96C48.9533 28.6533 48.7467 28.4267 48.44 28.28C48.1467 28.12 47.7133 28.04 47.14 28.04C46.4867 28.04 45.9 28.1267 45.38 28.3C44.86 28.46 44.32 28.6733 43.76 28.94L43.14 27.66C43.34 27.4867 43.6733 27.28 44.14 27.04C44.62 26.8 45.1867 26.5933 45.84 26.42C46.4933 26.2333 47.1667 26.14 47.86 26.14C48.8867 26.14 49.6867 26.2733 50.26 26.54C50.8467 26.8067 51.2667 27.2333 51.52 27.82C51.7733 28.4067 51.9 29.1933 51.9 30.18V36.3H52.98V37.42C52.7133 37.4867 52.3333 37.5533 51.84 37.62C51.3467 37.6867 50.9133 37.72 50.54 37.72C50.0867 37.72 49.78 37.6533 49.62 37.52C49.4733 37.3867 49.4 37.1133 49.4 36.7V36.16C49.04 36.56 48.5733 36.92 48 37.24C47.4267 37.56 46.78 37.72 46.06 37.72C45.4467 37.72 44.88 37.5933 44.36 37.34C43.8533 37.0733 43.4467 36.6933 43.14 36.2C42.8333 35.6933 42.68 35.0867 42.68 34.38ZM47.34 36.06C47.62 36.06 47.94 35.98 48.3 35.82C48.66 35.6467 48.9733 35.44 49.24 35.2V31.92C48.04 31.92 47.14 32.1267 46.54 32.54C45.9533 32.94 45.66 33.46 45.66 34.1C45.66 34.74 45.8067 35.2267 46.1 35.56C46.4067 35.8933 46.82 36.06 47.34 36.06Z" fill="black"/>
<path d="M54.9 36.3L56.02 36.12V28.28L54.74 27.92V26.54L58.06 26.12L58.3 26.28L58.6 26.94V27.78C59.04 27.3533 59.6667 26.98 60.48 26.66C61.3067 26.3267 62.02 26.16 62.62 26.16C63.34 26.16 63.92 26.28 64.36 26.52C64.8133 26.76 65.1533 27.1333 65.38 27.64C65.82 27.24 66.4 26.8933 67.12 26.6C67.84 26.3067 68.5467 26.16 69.24 26.16C70.4267 26.16 71.2667 26.5067 71.76 27.2C72.2533 27.8933 72.5 29.0267 72.5 30.6V36.12L73.8 36.3V37.5H68.62V36.3L69.66 36.12V30.68C69.66 29.64 69.5333 28.9133 69.28 28.5C69.04 28.0733 68.5733 27.86 67.88 27.86C67.5067 27.86 67.12 27.9467 66.72 28.12C66.3333 28.28 65.9867 28.48 65.68 28.72C65.7733 29.2267 65.82 29.86 65.82 30.62V36.12L67.06 36.3V37.5H61.84V36.3L62.94 36.12V30.62C62.94 29.9267 62.8933 29.3867 62.8 29C62.72 28.6 62.56 28.3133 62.32 28.14C62.08 27.9533 61.7333 27.86 61.28 27.86C60.8533 27.86 60.4267 27.96 60 28.16C59.5867 28.3467 59.2133 28.5733 58.88 28.84V36.12L60.06 36.3V37.5H54.9V36.3Z" fill="black"/>
<path d="M80.94 37.72C79.18 37.72 77.8667 37.2067 77 36.18C76.1467 35.14 75.72 33.7267 75.72 31.94C75.72 30.74 75.94 29.7 76.38 28.82C76.8333 27.94 77.4667 27.2667 78.28 26.8C79.0933 26.3333 80.0333 26.1 81.1 26.1C82.4333 26.1 83.46 26.4533 84.18 27.16C84.9 27.8533 85.2733 28.8467 85.3 30.14C85.3 31.02 85.2467 31.6733 85.14 32.1H78.64C78.6933 33.3133 78.98 34.26 79.5 34.94C80.02 35.6067 80.76 35.94 81.72 35.94C82.24 35.94 82.7733 35.8533 83.32 35.68C83.88 35.5067 84.32 35.3 84.64 35.06L85.14 36.16C84.78 36.5467 84.1933 36.9067 83.38 37.24C82.58 37.56 81.7667 37.72 80.94 37.72ZM82.5 30.9C82.5267 30.5267 82.54 30.24 82.54 30.04C82.54 28.2667 81.9467 27.38 80.76 27.38C80.1067 27.38 79.6 27.64 79.24 28.16C78.88 28.68 78.68 29.5933 78.64 30.9H82.5Z" fill="black"/>
<path d="M89.12 35.86C89.2267 36.02 89.4667 36.1733 89.84 36.32C90.2267 36.4533 90.6133 36.52 91 36.52C91.6267 36.52 92.0933 36.3933 92.4 36.14C92.72 35.8733 92.88 35.5267 92.88 35.1C92.88 34.66 92.6867 34.3067 92.3 34.04C91.9133 33.76 91.26 33.42 90.34 33.02L89.78 32.78C88.86 32.3933 88.1733 31.9267 87.72 31.38C87.2667 30.8333 87.04 30.1267 87.04 29.26C87.04 28.66 87.22 28.1267 87.58 27.66C87.94 27.18 88.4467 26.8067 89.1 26.54C89.7533 26.2733 90.5067 26.14 91.36 26.14C91.9867 26.14 92.52 26.18 92.96 26.26C93.4133 26.34 93.8867 26.4467 94.38 26.58C94.6467 26.6733 94.8467 26.7267 94.98 26.74V29.36H93.4L92.94 27.84C92.86 27.7067 92.68 27.5867 92.4 27.48C92.12 27.3733 91.8 27.32 91.44 27.32C90.8933 27.32 90.4533 27.44 90.12 27.68C89.8 27.9067 89.64 28.2267 89.64 28.64C89.64 29.0133 89.7533 29.3267 89.98 29.58C90.2067 29.82 90.4533 30.0067 90.72 30.14C90.9867 30.2733 91.48 30.4933 92.2 30.8C92.92 31.1067 93.5133 31.4 93.98 31.68C94.46 31.96 94.8533 32.3267 95.16 32.78C95.48 33.22 95.64 33.76 95.64 34.4C95.64 35.3867 95.2533 36.1867 94.48 36.8C93.7067 37.4133 92.5933 37.72 91.14 37.72C90.46 37.72 89.8467 37.66 89.3 37.54C88.7667 37.42 88.1467 37.26 87.44 37.06L87 36.92V34.28H88.66L89.12 35.86Z" fill="black"/>
<path d="M107.38 32.04H99.24V30.16H107.38V32.04Z" fill="black"/>
<path d="M112.36 24.14L110.72 23.88V22.64H121.76L121.96 26.26H120.36L119.62 24.06L115.3 23.84V29.5L118.28 29.44L118.66 27.68H119.94V32.76H118.68L118.28 30.96L115.3 30.88V36.1L118.36 36.3V37.5H110.82V36.3L112.36 36.1V24.14Z" fill="black"/>
<path d="M123.9 36.32L125.22 36.16V28.28L123.94 27.92V26.54L127.04 26.12H127.1L127.6 26.52V26.96L127.54 28.58H127.6C127.693 28.3133 127.913 27.9867 128.26 27.6C128.607 27.2 129.04 26.8533 129.56 26.56C130.093 26.2533 130.667 26.1 131.28 26.1C131.573 26.1 131.827 26.14 132.04 26.22V29.22C131.64 28.94 131.153 28.8 130.58 28.8C129.607 28.8 128.76 29.06 128.04 29.58V36.14L130.36 36.32V37.5H123.9V36.32Z" fill="black"/>
<path d="M133.9 31.96C133.9 30.7067 134.147 29.64 134.64 28.76C135.147 27.88 135.82 27.22 136.66 26.78C137.5 26.3267 138.413 26.1 139.4 26.1C141.08 26.1 142.373 26.62 143.28 27.66C144.2 28.6867 144.66 30.0867 144.66 31.86C144.66 33.1267 144.407 34.2067 143.9 35.1C143.407 35.98 142.74 36.64 141.9 37.08C141.073 37.5067 140.16 37.72 139.16 37.72C137.493 37.72 136.2 37.2067 135.28 36.18C134.36 35.14 133.9 33.7333 133.9 31.96ZM139.32 36.42C140.827 36.42 141.58 34.9667 141.58 32.06C141.58 30.54 141.4 29.3867 141.04 28.6C140.68 27.8 140.093 27.4 139.28 27.4C137.733 27.4 136.96 28.8533 136.96 31.76C136.96 33.28 137.147 34.44 137.52 35.24C137.907 36.0267 138.507 36.42 139.32 36.42Z" fill="black"/>
<path d="M145.72 26.4H150.88V27.54L149.48 27.78L150.96 33.1L151.44 35.28L151.88 33.08L153.68 26.4H156.1L158.08 33.08L158.56 35.28L159.04 33.1L160.44 27.8L158.98 27.54V26.4H163.26V27.54L162.24 27.76L159.2 37.66H156.9L154.88 31.18L154.42 28.8L154.06 31.18L152.2 37.66H149.88L146.68 27.76L145.72 27.54V26.4Z" fill="black"/>
<path d="M165.02 28.28L163.74 27.92V26.54L167.06 26.12H167.12L167.62 26.52V27.3L167.6 27.78C168.067 27.34 168.673 26.96 169.42 26.64C170.167 26.32 170.92 26.16 171.68 26.16C172.493 26.16 173.127 26.3133 173.58 26.62C174.047 26.9133 174.38 27.38 174.58 28.02C174.78 28.66 174.88 29.5267 174.88 30.62V36.14L176.1 36.3V37.5H170.94V36.3L172.02 36.14V30.62C172.02 29.9267 171.973 29.3867 171.88 29C171.787 28.6 171.613 28.3133 171.36 28.14C171.12 27.9533 170.773 27.86 170.32 27.86C169.56 27.86 168.747 28.1867 167.88 28.84V36.12L169.08 36.3V37.5H163.86V36.3L165.02 36.12V28.28Z" fill="black"/>
<path d="M179.28 36.96V34.88L186.18 31.48L179.28 28.12V26L188.74 30.9V32.08L179.28 36.96Z" fill="black"/>
</svg>
